<svg id="Capa_1" enable-background="new 0 0 512 512" height="512" viewBox="0 0 512 512" width="512" xmlns="http://www.w3.org/2000/svg"><g><g><path d="m512 106v-91c0-8.284-6.716-15-15-15h-482c-8.284 0-15 6.716-15 15v91c0 3.963 1.77 7.045 1.809 7.147.001.001.001.003.002.004l29.189 56.495v117.354c0 124.35 100.632 225 225 225 124.35 0 225-100.632 225-225v-117.354l29.189-56.495c.001-.001.001-.003.002-.004.249-.624 1.809-3.23 1.809-7.147zm-55.134 45h-401.732l-15.5-30h432.733zm-426.866-121h452v61h-452zm136 429.947v-128.947c0-49.626 40.374-90 90-90s90 40.374 90 90v128.947c-26.942 14.078-57.555 22.053-90 22.053s-63.058-7.975-90-22.053zm210-19.347v-109.6c0-66.168-53.832-120-120-120s-120 53.832-120 120v109.6c-45.625-35.724-75-91.295-75-153.6v-106h390v106c0 62.305-29.375 117.876-75 153.6z"/><path d="m256 271c-33.084 0-60 26.916-60 60s26.916 60 60 60 60-26.916 60-60-26.916-60-60-60zm0 90c-16.542 0-30-13.458-30-30s13.458-30 30-30 30 13.458 30 30-13.458 30-30 30z"/></g><circle cx="256" cy="436" r="15"/></g></svg>