<svg id="Capa_1" data-name="Capa 1" xmlns="http://www.w3.org/2000/svg" viewBox="0 0 329.23 124.74"><defs><style>.cls-1{fill:#ec671b;}</style></defs><path d="M11.07,47.92H36.48a9.5,9.5,0,0,1,6,1.92A5.82,5.82,0,0,1,45,54.56V67.08q0,5.55-5.07,8.94A20.9,20.9,0,0,1,28,79.21H22.58V96.54H11.07Zm11.51,9V70.22H28q5.44,0,5.45-3.14V56.91Zm37.29,22.3V96.54H48.37V47.92H73.78a9.52,9.52,0,0,1,6,1.92,5.81,5.81,0,0,1,2.53,4.72V67.08a8.69,8.69,0,0,1-4.42,7.62,8.72,8.72,0,0,1,4.42,7.67V96.54H70.76V82.37a2.8,2.8,0,0,0-1.23-2.27,4.8,4.8,0,0,0-2.88-.89Zm6.78-9a4.7,4.7,0,0,0,2.88-.92,2.66,2.66,0,0,0,1.23-2.22V56.91H59.87V70.22Zm45.79-22.3a9.48,9.48,0,0,1,6,1.92,5.82,5.82,0,0,1,2.54,4.72V89.9a5.79,5.79,0,0,1-2.54,4.71,9.43,9.43,0,0,1-6,1.93H95.53a9.43,9.43,0,0,1-6-1.93A5.79,5.79,0,0,1,87,89.9V54.56a5.82,5.82,0,0,1,2.54-4.72,9.48,9.48,0,0,1,6-1.92Zm-13.9,9V87.55h10.89V56.91Zm83.26,8.31V96.54H170.29V47.92h16l9.42,31.46V47.92h11.5V96.54H191.25Zm53-8.31H224v7.67q0,3.14,5.45,3.14a20.84,20.84,0,0,1,11.88,3.19,10.34,10.34,0,0,1,5.07,9v10a5.78,5.78,0,0,1-2.53,4.71,9.45,9.45,0,0,1-6,1.93H220.94a9.45,9.45,0,0,1-6-1.93,5.78,5.78,0,0,1-2.53-4.71V80.1H224v7.45h10.89V79.87q0-3.14-5.44-3.13a20.84,20.84,0,0,1-11.88-3.19,10.35,10.35,0,0,1-5.07-9v-10A5.81,5.81,0,0,1,215,49.84a9.5,9.5,0,0,1,6-1.92h16.92a9.5,9.5,0,0,1,6,1.92,5.81,5.81,0,0,1,2.53,4.72v9.77H234.84Zm27.58,30.64h19.17v9H250.91V47.92h30.68v9H262.42V67.72h16v9h-16Zm44-8.34h-5.45v-9h17V89.9a5.79,5.79,0,0,1-2.54,4.71,9.43,9.43,0,0,1-6,1.93H292.48a9.42,9.42,0,0,1-6-1.93A5.79,5.79,0,0,1,284,89.9V54.56a5.82,5.82,0,0,1,2.54-4.72,9.47,9.47,0,0,1,6-1.92H309.4a9.48,9.48,0,0,1,6,1.92,5.82,5.82,0,0,1,2.54,4.72v9.77H306.39V56.91H295.5V87.55h10.89Z"/><path class="cls-1" d="M15.71,108.05a3.54,3.54,0,0,1,2.59.93,3.22,3.22,0,0,1,.95,2.41,3.19,3.19,0,0,1-.95,2.4,3.55,3.55,0,0,1-2.59.94H13.77v2.88H12v-9.56Zm-.17,5.26a2,2,0,0,0,1.41-.56A1.94,1.94,0,0,0,17,110a1.93,1.93,0,0,0-1.42-.56H13.76v3.84Z"/><path class="cls-1" d="M27.64,113.31a2.93,2.93,0,0,1-1.55,1.18L28,117.61H26.25l-1.75-2.88H22.69v2.88H21v-9.56h3.68a3.54,3.54,0,0,1,2.59.93,3.22,3.22,0,0,1,.95,2.41A3.38,3.38,0,0,1,27.64,113.31Zm-4.95,0h1.77a2,2,0,0,0,1.42-.56,1.83,1.83,0,0,0,.56-1.36,1.8,1.8,0,0,0-.55-1.36,1.94,1.94,0,0,0-1.43-.56H22.69Z"/><path class="cls-1" d="M31.92,117.08a4.44,4.44,0,0,1-1.75-1.74,5.19,5.19,0,0,1,0-5,4.57,4.57,0,0,1,1.75-1.74,5,5,0,0,1,2.49-.62,4.93,4.93,0,0,1,2.47.62,4.69,4.69,0,0,1,1.77,1.74,5.19,5.19,0,0,1,0,5,4.55,4.55,0,0,1-1.77,1.74,4.93,4.93,0,0,1-2.47.63A5,5,0,0,1,31.92,117.08Zm5.24-2.59a3.26,3.26,0,0,0,.43-1.66,3.14,3.14,0,0,0-.92-2.32,3.21,3.21,0,0,0-4.52,0,3.37,3.37,0,0,0,0,4.63,3,3,0,0,0,2.26.94A3.15,3.15,0,0,0,37.16,114.49Z"/><path class="cls-1" d="M46.09,108.05H48l-3.31,6.23v3.33H43v-3.33l-3.31-6.23h1.92l2.26,4.5Z"/><path class="cls-1" d="M49.44,108.05h6.28v1.42H51.18v2.78h4.14v1.42H51.18v2.52h4.74v1.42H49.44Z"/><path class="cls-1" d="M64.69,114.58l1.53.76a4.39,4.39,0,0,1-1.73,1.74,5.2,5.2,0,0,1-5,0,4.46,4.46,0,0,1-1.76-1.74,5.26,5.26,0,0,1,0-5,4.6,4.6,0,0,1,1.76-1.74,5.23,5.23,0,0,1,5,0,4.52,4.52,0,0,1,1.73,1.74l-1.53.75A3.11,3.11,0,0,0,63.56,110a3.19,3.19,0,0,0-3.8.53,3.36,3.36,0,0,0,0,4.64,3,3,0,0,0,2.25.93A3.1,3.1,0,0,0,64.69,114.58Z"/><path class="cls-1" d="M73.81,108.05v1.42H71.34v8.14H69.6v-8.14H67.14v-1.42Z"/><path class="cls-1" d="M77,117.08a4.44,4.44,0,0,1-1.75-1.74,5.19,5.19,0,0,1,0-5A4.57,4.57,0,0,1,77,108.57a5,5,0,0,1,2.49-.62,4.93,4.93,0,0,1,2.47.62,4.69,4.69,0,0,1,1.77,1.74,5.19,5.19,0,0,1,0,5A4.55,4.55,0,0,1,82,117.08a4.93,4.93,0,0,1-2.47.63A5,5,0,0,1,77,117.08Zm5.24-2.59a3.26,3.26,0,0,0,.43-1.66,3.14,3.14,0,0,0-.92-2.32,3.1,3.1,0,0,0-2.26-.93,3.07,3.07,0,0,0-2.26.93,3.37,3.37,0,0,0,0,4.63,3,3,0,0,0,2.26.94A3.15,3.15,0,0,0,82.27,114.49Z"/><path class="cls-1" d="M90.89,110.56a1.58,1.58,0,0,0-1.59-1.23c-1,0-1.59.5-1.59,1.33a1,1,0,0,0,.5.84,3.13,3.13,0,0,0,.74.33l.44.14.9.29c.23.08.48.17.75.29a3.88,3.88,0,0,1,1.18.7,2.07,2.07,0,0,1,.69,1.69,2.45,2.45,0,0,1-1,2.06,5,5,0,0,1-5.08,0,2.63,2.63,0,0,1-1.12-2l1.73-.15a1.52,1.52,0,0,0,.66,1,2.09,2.09,0,0,0,1.24.36c1,0,1.76-.45,1.79-1.3a1.21,1.21,0,0,0-.44-.9,2.14,2.14,0,0,0-.51-.32l-.6-.26-.69-.22-.76-.24c-.19-.06-.39-.14-.63-.24a4.81,4.81,0,0,1-.56-.28,2.51,2.51,0,0,1-.42-.34,2,2,0,0,1-.58-1.58,2.29,2.29,0,0,1,.93-2,3.93,3.93,0,0,1,2.41-.68c1.75,0,3.08.84,3.32,2.47Z"/><path class="cls-1" d="M98,108.05h6.28v1.42H99.69v2.78h4.13v1.42H99.69v2.52h4.74v1.42H98Z"/><path class="cls-1" d="M109.74,108.05h1.74v9.56h-1.74Z"/><path class="cls-1" d="M119.33,108.05h1.74v9.66l-5.89-5.46v5.36h-1.74V108l5.89,5.46Z"/><path class="cls-1" d="M127.92,110.56a1.58,1.58,0,0,0-1.59-1.23c-1,0-1.59.5-1.59,1.33a1,1,0,0,0,.5.84,3.13,3.13,0,0,0,.74.33l.44.14.9.29c.22.08.48.17.75.29a3.88,3.88,0,0,1,1.18.7,2.07,2.07,0,0,1,.69,1.69,2.45,2.45,0,0,1-1,2.06,5,5,0,0,1-5.08,0,2.6,2.6,0,0,1-1.12-2l1.73-.15a1.54,1.54,0,0,0,.65,1,2.14,2.14,0,0,0,1.25.36c1,0,1.76-.45,1.78-1.3a1.16,1.16,0,0,0-.43-.9,2.14,2.14,0,0,0-.51-.32l-.6-.26-.69-.22-.76-.24c-.19-.06-.39-.14-.63-.24a4.81,4.81,0,0,1-.56-.28,2.51,2.51,0,0,1-.42-.34,2,2,0,0,1-.58-1.58,2.29,2.29,0,0,1,.93-2,3.93,3.93,0,0,1,2.41-.68c1.75,0,3.08.84,3.31,2.47Z"/><path class="cls-1" d="M137.52,108.05v1.42h-2.47v8.14h-1.74v-8.14h-2.47v-1.42Z"/><path class="cls-1" d="M144.41,117.61l-.56-1.76h-4.07l-.56,1.76h-1.77l3.05-9.56h2.62l3,9.56Zm-4.17-3.18h3.15l-1.58-4.94Z"/><path class="cls-1" d="M147.61,117.61v-9.56h1.73v8.14h4.06v1.42Z"/><path class="cls-1" d="M161.67,117.61l-.56-1.76H157l-.56,1.76h-1.77l3-9.56h2.62l3.05,9.56Zm-4.18-3.18h3.16l-1.58-4.94Z"/><path class="cls-1" d="M171.53,114.58l1.53.76a4.45,4.45,0,0,1-1.73,1.74,5.22,5.22,0,0,1-5,0,4.44,4.44,0,0,1-1.75-1.74,5.19,5.19,0,0,1,0-5,4.57,4.57,0,0,1,1.75-1.74,5.25,5.25,0,0,1,5,0,4.59,4.59,0,0,1,1.73,1.74l-1.53.75a3.11,3.11,0,0,0-2.68-1.49,3.07,3.07,0,0,0-2.26.93,3.39,3.39,0,0,0,0,4.64,3.07,3.07,0,0,0,2.26.93A3.11,3.11,0,0,0,171.53,114.58Z"/><path class="cls-1" d="M174.69,108.05h1.74v9.56h-1.74Z"/><path class="cls-1" d="M180.41,117.08a4.46,4.46,0,0,1-1.76-1.74,5.19,5.19,0,0,1,0-5,4.6,4.6,0,0,1,1.76-1.74,5.25,5.25,0,0,1,5,0,4.62,4.62,0,0,1,1.77,1.74,5.19,5.19,0,0,1,0,5,4.49,4.49,0,0,1-1.77,1.74,5.18,5.18,0,0,1-5,0Zm5.24-2.59a3.37,3.37,0,0,0,.43-1.66,3.14,3.14,0,0,0-.93-2.32,3.07,3.07,0,0,0-2.26-.93,3,3,0,0,0-2.25.93,3.35,3.35,0,0,0,0,4.63,3,3,0,0,0,2.25.94A3.18,3.18,0,0,0,185.65,114.49Z"/><path class="cls-1" d="M195.24,108.05H197v9.66l-5.89-5.46v5.36h-1.74V108l5.89,5.46Z"/><path class="cls-1" d="M199,108.05h6.27v1.42h-4.54v2.78h4.14v1.42h-4.14v2.52h4.74v1.42H199Z"/><path class="cls-1" d="M212.1,110.56a1.58,1.58,0,0,0-1.59-1.23c-1,0-1.59.5-1.59,1.33a.93.93,0,0,0,.5.84,3.05,3.05,0,0,0,.73.33l.45.14.89.29c.23.08.48.17.76.29a3.82,3.82,0,0,1,1.17.7,2,2,0,0,1,.69,1.69,2.45,2.45,0,0,1-1,2.06,4.22,4.22,0,0,1-2.56.71,4.3,4.3,0,0,1-2.51-.69,2.57,2.57,0,0,1-1.12-2l1.73-.15a1.47,1.47,0,0,0,.65,1,2.13,2.13,0,0,0,1.24.36c1.05,0,1.76-.45,1.79-1.3a1.16,1.16,0,0,0-.43-.9,2.23,2.23,0,0,0-.52-.32l-.6-.26-.68-.22-.76-.24a6.53,6.53,0,0,1-.63-.24,4.34,4.34,0,0,1-.57-.28,2.94,2.94,0,0,1-.41-.34,2,2,0,0,1-.59-1.58,2.29,2.29,0,0,1,.93-2,4,4,0,0,1,2.41-.68c1.75,0,3.08.84,3.32,2.47Z"/><path class="cls-1" d="M222.88,108.05a4.88,4.88,0,0,1,2.44.61,4.43,4.43,0,0,1,1.7,1.71,5,5,0,0,1,.61,2.46,5,5,0,0,1-.61,2.46,4.5,4.5,0,0,1-1.7,1.71,5,5,0,0,1-2.44.61h-3.73v-9.56Zm-.21,8.14a3.07,3.07,0,0,0,2.28-1,3.56,3.56,0,0,0,0-4.82,3.07,3.07,0,0,0-2.28-.94h-1.78v6.72Z"/><path class="cls-1" d="M229.2,108.05h6.28v1.42h-4.54v2.78h4.13v1.42h-4.13v2.52h4.74v1.42H229.2Z"/><path class="cls-1" d="M245.88,110.56a1.59,1.59,0,0,0-1.6-1.23c-1,0-1.59.5-1.59,1.33a1,1,0,0,0,.5.84,3.13,3.13,0,0,0,.74.33l.44.14.9.29c.23.08.48.17.76.29a3.94,3.94,0,0,1,1.17.7,2.07,2.07,0,0,1,.69,1.69,2.45,2.45,0,0,1-1,2.06,4.94,4.94,0,0,1-5.07,0,2.61,2.61,0,0,1-1.13-2l1.73-.15a1.52,1.52,0,0,0,.66,1,2.09,2.09,0,0,0,1.24.36c1.05,0,1.76-.45,1.79-1.3a1.23,1.23,0,0,0-.43-.9,2.23,2.23,0,0,0-.52-.32l-.6-.26-.69-.22-.75-.24c-.19-.06-.4-.14-.64-.24a4.81,4.81,0,0,1-.56-.28,3,3,0,0,1-.42-.34,2,2,0,0,1-.58-1.58,2.29,2.29,0,0,1,.93-2,3.93,3.93,0,0,1,2.41-.68c1.75,0,3.08.84,3.32,2.47Z"/><path class="cls-1" d="M249.59,108.05h6.27v1.42h-4.54v2.78h4.14v1.42h-4.14v2.52h4.74v1.42h-6.47Z"/><path class="cls-1" d="M262,112.15H267v.68a5,5,0,0,1-.64,2.51,4.62,4.62,0,0,1-1.77,1.74,5.2,5.2,0,0,1-5,0,4.53,4.53,0,0,1-1.76-1.74,5.26,5.26,0,0,1,0-5,4.67,4.67,0,0,1,1.76-1.74,5.25,5.25,0,0,1,5,0,4.56,4.56,0,0,1,1.72,1.74l-1.52.75a3,3,0,0,0-1.13-1.09,3.07,3.07,0,0,0-1.56-.4,3,3,0,0,0-2.25.93,3.35,3.35,0,0,0,0,4.63,3.08,3.08,0,0,0,4.13.27,3.5,3.5,0,0,0,1.16-1.66H262Z"/><path class="cls-1" d="M274.29,108.05H276V114a3.74,3.74,0,0,1-1,2.77,3.62,3.62,0,0,1-2.66,1,3.57,3.57,0,0,1-2.64-1,3.7,3.7,0,0,1-1-2.77v-5.9h1.73v6a2,2,0,0,0,.53,1.48,2,2,0,0,0,2.77,0,2.06,2.06,0,0,0,.51-1.48Z"/><path class="cls-1" d="M284.68,113.31a2.89,2.89,0,0,1-1.55,1.18l1.92,3.12h-1.76l-1.74-2.88h-1.81v2.88H278v-9.56h3.68a3.58,3.58,0,0,1,2.6.93,3.26,3.26,0,0,1,.94,2.41A3.38,3.38,0,0,1,284.68,113.31Zm-4.95,0h1.78a1.91,1.91,0,0,0,1.41-.56,1.8,1.8,0,0,0,.57-1.36,1.85,1.85,0,0,0-.56-1.36,1.91,1.91,0,0,0-1.42-.56h-1.78Z"/><path class="cls-1" d="M287,108.05h1.74v9.56H287Z"/><path class="cls-1" d="M294.39,108.05a4.86,4.86,0,0,1,2.44.61,4.43,4.43,0,0,1,1.7,1.71,5,5,0,0,1,.6,2.46,5,5,0,0,1-.6,2.46,4.5,4.5,0,0,1-1.7,1.71,5,5,0,0,1-2.44.61h-3.72v-9.56Zm-.21,8.14a3.07,3.07,0,0,0,2.28-1,3.56,3.56,0,0,0,0-4.82,3.07,3.07,0,0,0-2.28-.94H292.4v6.72Z"/><path class="cls-1" d="M306.49,117.61l-.56-1.76h-4.07l-.56,1.76h-1.77l3.05-9.56h2.62l3.05,9.56Zm-4.17-3.18h3.15l-1.58-4.94Z"/><path class="cls-1" d="M313.41,108.05a4.86,4.86,0,0,1,2.44.61,4.37,4.37,0,0,1,1.7,1.71,5,5,0,0,1,.61,2.46,5,5,0,0,1-.61,2.46,4.43,4.43,0,0,1-1.7,1.71,5,5,0,0,1-2.44.61h-3.72v-9.56Zm-.21,8.14a3.07,3.07,0,0,0,2.28-1,3.56,3.56,0,0,0,0-4.82,3.07,3.07,0,0,0-2.28-.94h-1.78v6.72Z"/><path d="M148.63,64c-.52,2.46-1.07,4.91-1.53,7.38a2.17,2.17,0,0,0,.48,1.22q5.63,8.92,11.27,17.84c1.34,2.14.42,4.56-1.89,5a3.28,3.28,0,0,1-3.51-1.78c-2.16-3.38-4.3-6.78-6.44-10.17-2.64-4.16-5.29-8.3-7.88-12.49a2.72,2.72,0,0,1-.34-1.81c.59-3.16,1.29-6.31,2-9.48-1.94.58-4.52,3.35-4.8,5.21-.34,2.24-.59,4.51-.92,6.76a2.28,2.28,0,0,1-2.51,2.16,2.23,2.23,0,0,1-2-2.64c.32-3,.64-6.09,1.15-9.1a5,5,0,0,1,1.52-2.6c2-1.86,4.12-3.58,6.26-5.28a10.13,10.13,0,0,1,6.4-2.36,4.26,4.26,0,0,1,4.33,2.51,41.2,41.2,0,0,1,2.37,6,6.66,6.66,0,0,0,4.26,4.91c1.61.63,3.15,1.45,4.71,2.21,1.39.67,1.91,1.85,1.39,3s-1.8,1.61-3.25.94c-2.44-1.13-4.85-2.34-7.31-3.42C150.55,67.25,149.62,65.75,148.63,64Z"/><path d="M158.93,13.35a9.59,9.59,0,0,1-2.26,6.4,9.83,9.83,0,0,1-7.85,3.75,37.33,37.33,0,0,1-5.7-.21A10.07,10.07,0,0,1,135,13.91c0-.17,0-.33,0-.56Z"/><path d="M146.94,12c-3.7,0-7.39,0-11.09,0a2.5,2.5,0,0,1-2.61-3.32A2.46,2.46,0,0,1,135.82,7h12.64c3.29,0,6.58,0,9.87,0a2.34,2.34,0,0,1,2.33,1.72,2.25,2.25,0,0,1-.87,2.68,4.13,4.13,0,0,1-1.94.54c-3.64,0-7.28,0-10.91,0Z"/><path d="M137.78,74.82c1.44,1.93,2.72,3.64,4,5.36a.8.8,0,0,1,.18.56c-.51,1.61-.75,3.39-1.63,4.76-1.89,3-4.1,5.69-6.2,8.5-1.15,1.53-2.77,1.84-4.1.85a2.77,2.77,0,0,1-.47-4.15c1.39-2,2.78-3.91,4.28-5.78a12.72,12.72,0,0,0,2.7-5.48C136.83,78,137.31,76.53,137.78,74.82Z"/><path d="M143.51,44.43a5.41,5.41,0,1,1,5.4,5.38A5.42,5.42,0,0,1,143.51,44.43Z"/><path class="cls-1" d="M123.77,62.48a50.75,50.75,0,0,0,5.46,2.42c.19-1.36.36-2.57.54-3.88a48.22,48.22,0,0,1-6-2.92Z"/><path class="cls-1" d="M120.93,45.31a1.19,1.19,0,0,0,.17.27,36,36,0,0,0,14.13,8.63,1.26,1.26,0,0,0,1-.11c1.09-.8,2.12-1.68,3.32-2.66a33.93,33.93,0,0,1-16-8.77Z"/><path class="cls-1" d="M156.16,42.3a23,23,0,0,0,7.75-5.15l-2.34-2.61-7.27,4.67Z"/><path class="cls-1" d="M172.8,45.08l-2.44-2.47a36.63,36.63,0,0,1-2.86,2.47Z"/><path class="cls-1" d="M167.45,59.48a50.62,50.62,0,0,1-10.12,3.65c1.56.74,2.85,1.28,4.07,1.95a2.55,2.55,0,0,0,2.57.09c1.15-.57,2.32-1.12,3.48-1.67Z"/><path class="cls-1" d="M129.84,37.07a23.69,23.69,0,0,0,11.57,6.38l1.43-3.58a21.26,21.26,0,0,1-10.28-5.49Z"/><path class="cls-1" d="M167.45,45.12A33.26,33.26,0,0,1,151.26,52l1.92,3.63a37.28,37.28,0,0,0,14.27-5.72Z"/><path class="cls-1" d="M155.08,29.26l-2.49-2.71c-4,3-7,3-11.19.11l-2.87,2.46C143.71,34.39,152.15,33.05,155.08,29.26Z"/></svg>